<svg xmlns="http://www.w3.org/2000/svg" xmlns:svg="http://www.w3.org/2000/svg" id="Layer_1" width="100" height="100" x="0" y="0" version="1.1" viewBox="0 0 100 100" xml:space="preserve"><metadata id="metadata3292"/><g id="g3294" transform="translate(0,-6.25)"><path id="path3272" d="M 12.5,18.75 C 12.5,22.205 9.705,25 6.25,25 2.795,25 0,22.205 0,18.75 0,15.295 2.795,12.5 6.25,12.5 c 3.455,0 6.25,2.795 6.25,6.25 z" style="fill:#010101"/><rect id="rect3274" width="75" height="12.5" y="12.5" style="fill:#010101" x="25"/><path id="path3276" d="M 12.5,68.75 C 12.5,72.205 9.705,75 6.25,75 2.795,75 0,72.205 0,68.75 0,65.295 2.795,62.5 6.25,62.5 c 3.455,0 6.25,2.795 6.25,6.25 z" style="fill:#010101"/><rect id="rect3278" width="75" height="12.5" style="fill:#010101" x="25" y="62.5"/><path id="path3280" d="M 12.5,43.75 C 12.5,47.205 9.705,50 6.25,50 2.795,50 0,47.205 0,43.75 0,40.295 2.795,37.5 6.25,37.5 c 3.455,0 6.25,2.795 6.25,6.25 z" style="fill:#010101"/><path id="path3282" d="M 12.5,93.75 C 12.5,97.205 9.705,100 6.25,100 2.795,100 0,97.205 0,93.75 0,90.295 2.795,87.5 6.25,87.5 c 3.455,0 6.25,2.795 6.25,6.25 z" style="fill:#010101"/><rect id="rect3284" width="75" height="12.5" style="fill:#010101" x="25" y="37.5"/><rect id="rect3286" width="75" height="12.5" style="fill:#010101" x="25" y="87.5"/></g></svg>